<?xml version="1.0" encoding="utf-8"?>
<!-- Generator: Adobe Illustrator 16.0.0, SVG Export Plug-In . SVG Version: 6.00 Build 0)  -->
<!DOCTYPE svg PUBLIC "-//W3C//DTD SVG 1.1//EN" "http://www.w3.org/Graphics/SVG/1.1/DTD/svg11.dtd">
<svg version="1.1" id="Layer_1" xmlns="http://www.w3.org/2000/svg" xmlns:xlink="http://www.w3.org/1999/xlink" x="0px" y="0px"
	 width="265px" height="33px" viewBox="0 0 265 33" enable-background="new 0 0 265 33" xml:space="preserve">
<path fill="#777" d="M72.726,19.928c0,2.702,0,5.494-1.64,7.504c-1.627,2.014-4.804,2.931-7.066,2.931
	c-2.264,0-5.438-0.917-7.068-2.932c-1.637-2.009-1.637-4.801-1.637-7.503V2.716h-1.263V20.47c0,2.89,0,5.384,1.979,7.717
	c1.877,2.042,4.868,3.264,7.99,3.264c3.121,0,6.109-1.224,7.999-3.273c1.969-2.323,1.969-4.817,1.969-7.707V2.716h-1.262V19.928z
	 M18.997,17.343h11.972l-0.024,0.34c-0.225,3.605-2.011,7.034-4.9,9.409c-2.737,2.111-5.986,3.271-9.153,3.271
	c-7.773,0-14.099-6.043-14.099-13.472c0-7.175,6.588-13.469,14.099-13.469c4.7,0,8.849,2.129,11.724,6.006l0.932-0.892
	c-3.286-4.063-7.614-6.206-12.537-6.206c-8.536,0-15.481,6.583-15.481,14.676c0,7.828,6.979,14.443,15.241,14.443
	c4.279,0,8.49-1.716,11.264-4.588c2.722-2.729,4.22-6.229,4.22-9.855v-0.754H18.997V17.343z M41.798,17.343
	c5.019,0,8.139-2.781,8.139-7.257c0-1.828-0.506-4.346-2.916-5.968c-2.024-1.402-4.527-1.402-6.729-1.402h-3.45v28.35h1.263V17.341
	h1.476l9.901,13.725h1.398l-9.947-13.736L41.798,17.343z M38.105,16.253V3.806l2.535-0.001c1.575,0,3.228,0.052,4.625,0.686
	c2.102,0.893,3.411,3.01,3.411,5.52c0,1.96-0.823,3.717-2.26,4.824c-1.578,1.31-3.511,1.419-5.522,1.419H38.105z M147.399,5.896
	c-1.621-1.382-3.554-2.449-5.65-3.151l-5.652,5.399c2.472,0.035,4.72,0.986,6.38,2.455L147.399,5.896z M111.148,3.422
	c7.015,0,13.018,5.171,13.987,11.646l1.096-1.047c-1.456-6.573-7.773-11.69-15.083-11.69c-8.351,0-15.405,6.668-15.405,14.56
	c0,6.966,5.499,12.972,12.532,14.286l0.998-0.955c-6.815-0.906-12.264-6.633-12.264-13.331C97.008,9.59,103.483,3.422,111.148,3.422
	 M224.076,15.953v-0.076c2.4-1.166,3.266-3.233,3.266-5.787c0-5.412-3.541-7.366-8.811-7.366h-11.014V31.06h11.881
	c5.427,0,10.736-1.953,10.736-7.891C230.135,19.223,228.324,16.479,224.076,15.953 M215.226,8.361h0.552
	c2.082,0,4.483,0.153,4.483,2.743c0,2.407-2.124,2.744-4.17,2.744h-0.865V8.361z M216.21,25.424h-0.984v-6.087h0.787
	c2.519,0,6.334-0.342,6.334,3.08C222.347,25.535,218.49,25.424,216.21,25.424 M247.832,1.785c-8.535,0-16.401,6.011-16.401,14.582
	c0,9.168,6.882,15.633,16.401,15.633s16.404-6.465,16.404-15.633C264.236,7.796,256.369,1.785,247.832,1.785 M247.832,24.86
	c-4.601,0-8.377-3.571-8.377-8.455c0-3.91,3.776-7.48,8.377-7.48c4.602,0,8.381,3.57,8.381,7.48
	C256.213,21.289,252.434,24.86,247.832,24.86 M188.373,1.785c-8.537,0-16.403,6.011-16.403,14.582
	c0,9.168,6.884,15.633,16.403,15.633c9.521,0,16.404-6.465,16.404-15.633C204.777,7.796,196.91,1.785,188.373,1.785 M188.373,24.86
	c-4.6,0-8.378-3.571-8.378-8.455c0-3.91,3.778-7.48,8.378-7.48c4.601,0,8.379,3.57,8.379,7.48
	C196.752,21.289,192.974,24.86,188.373,24.86 M162.903,2.725h-7.707V31.06h16.951v-6.238h-9.244V2.725z M137.618,15.24v5.787h6.607
	c-1.582,2.995-4.7,4.916-8.265,4.916c-4.919,0-8.987-3.66-9.328-8.757l-5.818,5.559C123.212,28.39,128.849,32,135.961,32
	c9.521,0,16.404-6.465,16.404-15.632c0-0.383-0.035-0.756-0.066-1.128H137.618z M90.856,4.33c-1.834-1.49-4.141-1.614-6.344-1.614
	h-5.018v28.35h1.263V17.302h3.755c2.057,0,4.658-0.202,6.543-1.768c1.493-1.189,2.417-3.292,2.417-5.486
	C93.473,7.726,92.544,5.697,90.856,4.33 M90.129,14.553c-1.704,1.459-3.666,1.66-5.536,1.66h-3.837V3.806h3.516
	c1.711,0,3.842,0,5.516,1.221c1.517,1.067,2.427,2.917,2.427,4.943C92.215,11.787,91.494,13.372,90.129,14.553"/>
</svg>
